<svg width="20" height="19" viewBox="0 0 20 19" fill="none" xmlns="http://www.w3.org/2000/svg">
<path d="M9.87474 17.5828C11.4323 17.5883 12.9564 17.1317 14.2545 16.271C15.5526 15.4102 16.5662 14.1839 17.1673 12.747C17.7684 11.3102 17.93 9.72732 17.6315 8.19866C17.333 6.67 16.5879 5.26418 15.4904 4.15897C14.393 3.05377 12.9924 2.29882 11.4659 1.98959C9.9394 1.68036 8.35546 1.83074 6.91441 2.42172C5.47335 3.0127 4.2399 4.01772 3.37004 5.30971C2.50017 6.6017 2.03296 8.12261 2.02748 9.68013C2.02291 10.9821 2.33359 12.2108 2.88978 13.2943L1.99979 17.5551L6.26672 16.6951C7.34624 17.2589 8.57363 17.5782 9.87474 17.5828Z" stroke="#A49273" stroke-width="2.5" stroke-linecap="round" stroke-linejoin="round"/>
</svg>
