<svg width="25" height="25" viewBox="0 0 25 25" fill="none" xmlns="http://www.w3.org/2000/svg">
<path d="M3.03153 15.0947L21.0314 15.1579M3.05263 9.09469L21.0525 9.15799M9.0104 21.1157L9.07369 3.11583M15.0104 21.1368L15.0737 3.13692M5.47372 3.10317L18.6736 3.14958C19.3101 3.15182 19.9197 3.40682 20.3682 3.85849C20.8167 4.31016 21.0674 4.92149 21.0652 5.55801L21.0188 18.7579C21.0165 19.3944 20.7615 20.004 20.3099 20.4525C19.8582 20.901 19.2469 21.1517 18.6103 21.1495L5.41042 21.1031C4.7739 21.1008 4.16435 20.8458 3.71585 20.3941C3.26734 19.9425 3.01664 19.3311 3.01887 18.6946L3.06529 5.49471C3.0664 5.17954 3.12957 4.86768 3.25121 4.57692C3.37284 4.28616 3.55056 4.02221 3.7742 3.80014C4.22587 3.35164 4.8372 3.10093 5.47372 3.10317Z" stroke="#A49273" stroke-width="1.5" stroke-miterlimit="10" stroke-linecap="round" stroke-linejoin="round"/>
</svg>
