<svg width="21" height="19" viewBox="0 0 21 19" fill="none" xmlns="http://www.w3.org/2000/svg">
<path d="M10.0563 4.12636C10.0563 4.12636 10.0563 4.12636 9.29981 3.12369C8.42389 1.9606 7.12686 1.11604 5.56687 1.11055C3.07688 1.10179 1.05983 3.10471 1.05107 5.5947C1.0478 6.52469 1.32477 7.38567 1.80227 8.09736C2.60801 9.3102 10.0106 17.1263 10.0106 17.1263M10.0563 4.12636C10.0563 4.12636 10.0563 4.12636 10.8198 3.12903C11.7039 1.97214 13.0068 1.13671 14.5668 1.1422C17.0568 1.15095 19.0597 3.16801 19.051 5.658C19.0477 6.58799 18.7647 7.447 18.2822 8.15531C17.4679 9.36245 10.0106 17.1263 10.0106 17.1263" stroke="#A49273" stroke-width="2" stroke-linecap="round" stroke-linejoin="round"/>
</svg>
