<svg width="26" height="27" viewBox="0 0 26 27" fill="none" xmlns="http://www.w3.org/2000/svg">
<path d="M6.49787 21.1682L9.72922 21.1796L9.74816 15.794C9.74923 15.4888 9.85353 15.2335 10.0611 15.0282C10.2686 14.8228 10.5246 14.7203 10.8291 14.7207L15.1375 14.7358C15.4427 14.7369 15.6983 14.8412 15.9044 15.0487C16.1105 15.2563 16.2126 15.5123 16.2109 15.8167L16.1919 21.2023L19.4233 21.2137L19.4574 11.5196L13.0117 6.64987L6.53196 11.4742L6.49787 21.1682ZM4.34363 21.1606L4.37772 11.4666C4.37892 11.1255 4.45653 10.8026 4.61056 10.498C4.76458 10.1933 4.97622 9.94276 5.24548 9.74623L11.7252 4.92193C12.1032 4.63603 12.5346 4.49393 13.0193 4.49563C13.504 4.49734 13.9343 4.64247 14.3103 4.93103L20.756 9.80077C21.0245 9.99919 21.2348 10.2513 21.3866 10.557C21.5385 10.8627 21.6135 11.1861 21.6116 11.5272L21.5775 21.2212C21.5754 21.8137 21.3625 22.3202 20.9388 22.741C20.5151 23.1617 20.0074 23.3707 19.4157 23.3679L15.1072 23.3527C14.802 23.3517 14.5468 23.2474 14.3414 23.0398C14.136 22.8323 14.0335 22.5763 14.0339 22.2718L14.0528 16.8863L11.8986 16.8787L11.8797 22.2643C11.8786 22.5695 11.7743 22.8251 11.5668 23.0312C11.3592 23.2372 11.1032 23.3394 10.7988 23.3376L6.49029 23.3224C5.89788 23.3204 5.39166 23.1078 4.97163 22.6848C4.5516 22.2618 4.34227 21.7538 4.34363 21.1606Z" fill="#A49273"/>
</svg>
